<?xml version="1.0" encoding="UTF-8"?>
<svg xmlns="http://www.w3.org/2000/svg" version="1.1" viewBox="0 0 122.9 122.9">
  <!-- Generator: Adobe Illustrator 28.7.1, SVG Export Plug-In . SVG Version: 1.2.0 Build 142)  -->
  <g>
    <g id="Layer_1">
      <path d="M59.4,71.1c0,2.1-.8,4-2.5,5.2-4.2,2.8-8.3-1.1-11.2-3.7-8.2-7.5-30.8-25.4-35.2-29.1-2.7-2-3.1-5.9-1.1-8.5.3-.4.7-.8,1.1-1.1,4.5-3.8,27.9-22.6,36-29.8,2.8-2.5,6.6-5.5,10.4-2.9,1.7,1.2,2.6,3.2,2.5,5.2v17.8c22.3-.8,33.6,3.8,43.1,14.5s12.1,25.4,12.1,45.7v38.5h-26.7v-38.5c0-13.9-1.2-23.4-5.4-28.1-3.8-4.4-8.9-6.1-23.2-5.5v20.2h0Z"/>
    </g>
  </g>
</svg>