<?xml version="1.0" encoding="UTF-8"?>
<svg xmlns="http://www.w3.org/2000/svg" version="1.1" viewBox="0 0 122.9 122.9">
  <!-- Generator: Adobe Illustrator 28.7.1, SVG Export Plug-In . SVG Version: 1.2.0 Build 142)  -->
  <g>
    <g id="Layer_1">
      <path d="M96.1,38.4c-7.2-8.1-26-31.5-29.8-36-.3-.4-.7-.8-1.1-1.1-2.6-2-6.5-1.6-8.5,1.1-3.7,4.4-21.6,27-29.1,35.2-2.6,2.9-6.5,7-3.7,11.2,1.2,1.7,3.1,2.5,5.2,2.5h0c0-.1,18.8-.1,18.8-.1v71.7h27V51.3h1s17.8,0,17.8,0c2,0,4-.8,5.2-2.5,2.6-3.8-.4-7.6-2.9-10.4Z"/>
    </g>
  </g>
</svg>