<?xml version="1.0" encoding="UTF-8"?>
<svg xmlns="http://www.w3.org/2000/svg" version="1.1" viewBox="0 0 122.9 122.9">
  <!-- Generator: Adobe Illustrator 28.7.1, SVG Export Plug-In . SVG Version: 1.2.0 Build 142)  -->
  <g>
    <g id="Layer_1">
      <path d="M63.5,71.1v-20.2c-14.2-.6-19.4,1.1-23.2,5.5-4.2,4.7-5.4,14.2-5.4,28.1v38.5H8.2v-38.5c0-20.3,2.7-35,12.1-45.7,9.5-10.7,20.7-15.3,43.1-14.5V6.4c-.1-2,.8-4,2.5-5.2,3.8-2.6,7.7.5,10.4,2.9,8.1,7.2,31.6,26,36,29.8.4.3.8.7,1.1,1.1,2,2.7,1.6,6.5-1.1,8.5-4.4,3.7-26.9,21.7-35.2,29.1-2.9,2.6-7.1,6.5-11.2,3.7-1.6-1.2-2.6-3.2-2.5-5.2h0Z"/>
    </g>
  </g>
</svg>